<?xml version="1.0" encoding="UTF-8"?> <svg xmlns="http://www.w3.org/2000/svg" viewBox="0 0 120 77.9"><path fill="#1d1d1b" d="M41.2 77.9c0 .1-.1.2-.2.2h-.5c-.1 0-.2-.1-.2-.2l-.1-2.8v-.7-.8-.7-.7c-.1.4-.2.8-.4 1.2-.1.4-.3.9-.5 1.3l-1.1 3.1c0 .1 0 .1-.1.1l-.1.1h-.4c-.1 0-.2-.1-.2-.2l-1-3c-.2-.5-.3-.9-.4-1.4l-.3-1.2v1.4c0 .5 0 1-.1 1.5l-.2 2.7c0 .1-.1.2-.2.2h-.4c-.1 0-.2-.1-.2-.2v-.1l.4-6.3v-.1h1c.1 0 .1 0 .1.1l1.1 3.1c.2.4.3.8.4 1.2l.3 1.1c.1-.3.2-.7.3-1.1.1-.4.3-.8.4-1.2l1.1-3.1c0-.1.1-.1.1-.1h1v.1l.4 6.3v.2c0-.1 0-.1 0 0zm6.5.1c0 .1-.1.1-.1.1h-.7l-.1-.1-.7-2h-2.4l-.6 2s0 .1-.1.1h-.6c-.1 0-.1 0-.1-.1v-.1l2.2-6.4c0-.1.1-.2.2-.2h.7c.1 0 .1 0 .1.1l.1.1 2.1 6.5c0-.1 0 0 0 0zm-2.8-5.9l-.2.8-.8 2.4h2l-.8-2.4-.2-.8zm8.7 5.5c0 .1-.1.1-.2.2s-.3.1-.5.2c-.2 0-.4.1-.7.1h-.7c-.5 0-.9-.1-1.4-.2-.4-.1-.8-.3-1.1-.6-.3-.3-.6-.6-.7-1.1-.2-.4-.3-.9-.3-1.5 0-.5.1-1 .2-1.4.2-.4.4-.8.7-1.1.3-.3.7-.6 1.1-.7.4-.2 1-.3 1.5-.3h.6c.2 0 .4.1.5.1.1 0 .3.1.3.1.1 0 .1.1.1.1v.1l-.1.5c0 .1-.1.1-.1.1h-.1-.1c-.2-.1-.3-.1-.5-.1s-.4-.1-.7-.1c-.4 0-.8.1-1.1.2-.3.1-.6.3-.8.5-.2.2-.4.5-.5.9-.1.3-.2.7-.2 1.1 0 .4.1.8.2 1.1.1.3.3.6.5.9.2.2.5.4.8.5.3.1.7.2 1.1.2h.7c.2 0 .3-.1.4-.1v-2h-1.3c-.1 0-.2-.1-.2-.2v-.3c0-.1.1-.2.2-.2h2c.1 0 .2.1.2.2v2.8zm6.5.4c0 .1-.1.1-.1.1h-.7l-.1-.1-.7-2h-2.4l-.6 2s0 .1-.1.1h-.6c-.1 0-.1 0-.1-.1v-.1l2.2-6.4c0-.1.1-.2.2-.2h.7c.1 0 .1 0 .1.1l.1.1 2.1 6.5c0-.1 0 0 0 0zm-2.8-5.9l-.2.8-.8 2.4h2l-.8-2.4-.2-.8zm8.1-.8c.1 0 .2.1.2.2v.2c0 .1 0 .2-.1.3l-3.6 5.3h3.7c.1 0 .1.1.1.2v.4c0 .1 0 .1-.1.1H61c-.1 0-.2-.1-.2-.2v-.2c0-.1 0-.2.1-.3l3.6-5.3h-3.2c-.1 0-.2-.1-.2-.2v-.3c0-.1.1-.2.2-.2h4.1zm2.3 6.6c0 .1-.1.2-.2.2H67c-.1 0-.2-.1-.2-.2v-6.3c0-.1.1-.2.2-.2h.5c.1 0 .2.1.2.2v6.3zm6.3.2h-.6c-.1 0-.1 0-.1-.1l-.1-.1-2.4-4.1-.7-1.4H70l.1 2.8v2.7c0 .1-.1.2-.2.2h-.4c-.1 0-.2-.1-.2-.2v-6.3c0-.1.1-.2.2-.2h.6c.1 0 .1 0 .1.1l.1.1 2.4 4 .7 1.4h.1l-.1-2.8v-2.6c0-.1.1-.2.2-.2h.4c.1 0 .2.1.2.2v6.3c0 .1-.1.2-.2.2zm2.7-3.2v2.4h2.6c.1 0 .2.1.2.2v.3c0 .1-.1.2-.2.2H76c-.1 0-.2-.1-.2-.2v-6.3c0-.1.1-.2.2-.2h3.4v.5c0 .1 0 .1-.1.1l-.1.1h-2.6v2.1H79c.1 0 .1 0 .1.1v.5c0 .1 0 .1-.1.1l-.1.1h-2.2z"></path><path d="M38.9 9.5c-.6 1.1-1.7 2.5-2.7 4.8-.9 2-1.9 4.6-3.2 7.8-2.4 6.4-5 12.8-7.8 19.1-1.3 3-2.7 6.1-4.2 9.1s-3.1 5.9-4.9 8.8c-.8 1.3-1.7 2.7-2.7 3.9-.9 1.3-2 2.5-3.2 3.6-.4.4-.9.8-1.4 1.2-.5.4-1.1.8-1.7 1.1-.6.3-1.2.4-1.8.5-.6.1-1.2-.1-1.8-.4-.6-.4-1.1-.9-1.5-1.6-.4-.7-.7-1.4-.9-2.2-.2-.8-.4-1.6-.5-2.4-.1-.8-.2-1.5-.2-2.2-.3-1.4-.4-3.1-.4-4.7s0-3.3.1-4.9c.3-3.4.6-6.8 1.2-10.1.5-3.4 1.1-6.7 1.8-10.1.7-3.4 1.3-6.8 2.2-10.1C10.2 2.4 19.1-.6 19.8-.3c.5.2-3.1.1-7.9 16.9-.6 2.2-1.8 7.1-2 8.5L9 29.2c-.6 2.9-1.3 5.7-1.9 8.6-.6 2.8-1.2 5.7-1.7 8.6l-.9 5c-.3 1.7-.5 3.3-.8 5L3.1 61c-.2 1.6-.1 3.2.2 4.7.1.5.3 1 .5 1.5s.6.9 1.2.9c.6.1 1.1 0 1.7-.3.5-.3 1-.5 1.5-.9 1.2-.8 2.3-1.9 3.3-3.2A78.64 78.64 0 0019.3 51c1.5-3 3-6.1 4.4-9.3 2.8-6.3 5.3-12.6 7.8-19 2.6-6.8 4.6-10.8 5.9-13C39.3 6.6 41 7.1 41 7.2c0 .4-.7-.2-2.1 2.3zm79.1 36c-.1.3-.4 1.2-.5 1.4-.6 1.4-1.2 2.8-1.9 4.1-.7 1.3-1.5 2.6-2.4 3.8-.8 1-1.6 1.9-2.6 2.8-1 .9-2.2 1.4-3.4 1.6a3.46 3.46 0 01-3.1-1.1c-.3-.4-.6-.9-.8-1.4-.2-.5-.4-1.1-.4-1.7-.2-1.6-.2-3.2 0-4.8.2-1.6.6-3.1 1-4.6.5-1.5 1-2.9 1.6-4.4.6-1.4 1.2-2.9 1.8-4.3.4-.9.6-1.7.6-2.2 0-.6-.2-1.3-.7-2.2-.3-.6-.8-1.2-1.3-1.8-.5-.6-1.1-1.2-1.7-1.8-.7 1.5-1.3 2.9-2 4.3-.6 1.4-1.3 2.8-2 4.3L99 40c-.4.9-2 4.6-2.2 4.9-.5 1-1 2-1.6 3-.7 1.3-1.5 2.4-2.4 3.6-.8 1.1-1.8 2.1-2.8 3.1-1.1.9-2.3 1.7-3.6 2.4-1.3.7-2.6 1.1-3.9 1.4-1.4.3-2.8.4-4.1.4-1.5 0-2.7-.5-3.8-1.3-1.1-.8-2-1.9-2.6-3.1-.8-1.4-1.2-2.9-1.4-4.5-.1-.8-.2-1.5-.2-2.3-.1.3-.3.6-.4.9-.7 1.4-1.5 2.8-2.3 4.1a20 20 0 01-2.9 3.5c-1.1 1.1-2.3 1.9-3.7 2.5-1 .5-2 .6-2.9.6-.9-.1-1.7-.7-2.4-1.8-.8-1.3-1.1-2.8-1.1-4.4 0-1.6.1-3.2.2-4.7V48c-.7 1.2-1.5 2.3-2.3 3.4-.9 1.1-1.8 2.2-2.9 3.1-1.1.9-2.3 1.7-3.6 2.4-1.3.7-2.6 1.1-3.9 1.4-1.4.3-2.8.4-4.1.4-1.5 0-2.7-.5-3.8-1.3-1.1-.8-2-1.9-2.6-3.1-.8-1.4-1.2-2.9-1.4-4.5-.2-1.6-.2-3.2 0-4.8.2-1.6.5-3.2 1.1-4.8.5-1.6 1.1-3 1.8-4.4.7-1.2 1.5-2.4 2.4-3.5a17.62 17.62 0 016.8-5.5c1.3-.6 2.7-.8 4.2-.8 1.4 0 2.6.4 3.5 1.1 1 .7 1.8 1.6 2.3 2.7.6 1.1.9 2.2 1 3.5.1 1.3 0 2.5-.3 3.7-.3 1.2-.8 2.4-1.5 3.6-.6 1.2-1.4 2.2-2.4 3.1-.9.9-1.9 1.7-3.1 2.3-1.1.6-2.4.9-3.7 1-1.3.1-2.5-.1-3.7-.6-1.2-.5-2.1-1.3-2.9-2.3-.3 1.2-.6 2.4-.8 3.6-.2 1.2-.3 2.4-.4 3.7 0 .7 0 1.3.1 2s.3 1.3.5 1.8a4.18 4.18 0 002.9 2.4c1.4.3 2.8.3 4.3-.1 1.4-.4 2.8-1 4-1.8 1.3-.8 2.4-1.8 3.5-2.9 1.1-1.1 2-2.2 2.7-3.3.6-.9 1.1-1.8 1.6-2.7.5-.9 1.3-3.2 2.5-8.9l1.8-8.7c.6-2.9 1.4-5.8 2.3-8.7l.1-.3c-2.8.2-5.7.2-8.5 0-.2 0-.4-.1-.6-.4-.2-.2-.3-.5-.3-.7 0-.3 0-.5.1-.7.1-.2.3-.3.6-.2 3.1.4 6.1.5 9.2.5v-.2c.8-2.5 1.7-4.8 2.6-7.1.7-1.5 1.4-2.9 2.2-4.2.8-1.3 1.8-2.5 3-3.5.3-.3.7-.5 1.1-.9.5-.3.9-.6 1.5-.8.5-.2 1-.3 1.6-.3.5 0 1 .2 1.4.5.5.5.7 1 .6 1.6 0 .6-.1 1.2-.3 1.8-.2.8-.4 1.6-.7 2.4-.1.6-.4 1.3-.8 2l-1.8 4.2c-.3.6-1.1 2.3-2 4 4-.1 8-.1 12 .4.4.1.6.2.6.3 0 .2-.2.2-.6.2-4.2-.4-8.4-.1-12.6.3-1 1.9-1.9 3.7-2.3 4.4-.8 1.4-1.5 2.8-2.2 4.1l-1.5 2.8c-.3 1.1-.6 2.2-.9 3.2-.3 1-.6 2.1-.8 3.2-.7 2.5-1.4 4.9-2.2 7.4-.7 2.5-1.3 5-1.6 7.6-.1.6-.1 1.3-.2 1.9 0 .7 0 1.3.2 1.9.2.5.4.8.7 1 .3.2.6.3 1.1.3.8.1 1.5 0 2.1-.3.6-.3 1.3-.8 1.8-1.3.6-.5 1.1-1.1 1.6-1.8.5-.6.9-1.2 1.3-1.7 1.2-1.6 2.3-3.5 3.2-5.4 1-2.1 1.4-4.4 2.1-6.5.5-1.6 1.1-3 1.8-4.4.7-1.2 1.5-2.4 2.4-3.5a17.62 17.62 0 016.8-5.5c1.3-.6 2.7-.8 4.2-.8 1.4 0 2.6.4 3.5 1.1 1 .7 1.8 1.6 2.3 2.7.6 1.1.9 2.2 1 3.5.1 1.3 0 2.5-.3 3.7-.3 1.2-.8 2.4-1.5 3.6-.6 1.2-1.4 2.2-2.3 3.1-.9.9-1.9 1.7-3.1 2.3-1.1.6-2.4.9-3.7 1-1.3.1-2.5-.1-3.7-.6-1.2-.5-2.1-1.3-2.9-2.3-.3 1.2-.6 2.4-.8 3.6-.2 1.2-.3 2.4-.4 3.7 0 .7 0 1.3.1 2s.3 1.3.5 1.8a4.18 4.18 0 002.9 2.4c1.4.3 2.8.3 4.3-.1 1.4-.4 2.8-1 4-1.8 1.3-.8 2.4-1.8 3.5-2.9 1.1-1.1 2-2.2 2.7-3.3.6-.9 1.1-1.8 1.6-2.7.4-.7 5-10.7 5-10.7l2-4.3c.7-1.4 1.3-2.9 1.8-4.3-.8-1-1.5-2.1-2-3.2s-.6-2.3-.2-3.7c.2-.8.6-1.5 1.3-2 .6-.6 1.4-.8 2.2-.7.9 0 1.6.4 2.1 1s.8 1.4.8 2.2c0 .5-.1 1.1-.3 1.6l-.6 1.5.6 1.5c.2.8.4 1.5.7 2.3.2.8.5 1.5.8 2.2.3.7.6 1.3 1 1.9.4.6.7 1.3.9 1.9.4 1.1.6 2.3.4 3.6-.1 1.3-.3 2.5-.5 3.6a61.89 61.89 0 01-3.1 10.5c-.3.7-.5 1.4-.8 2.2-.2.8-.3 1.4-.3 2.1 0 .6.2 1 .7 1.1.6.2 1.1.2 1.7 0 .5-.2 1.1-.4 1.6-.8.5-.3 1-.7 1.4-1.2.4-.4.8-.9 1.1-1.3 1.6-2.2 2.8-4.7 3.7-7.2.3-.8.8-1.7 1.2-2.4 1.2-1.9 2.3-1.7 2.4-1.4 0 .4-.7-.5-2.1 2.7zm-41.3-3.6c.4.9 1 1.7 1.9 2.2.9.5 1.9.8 3 .6 1.5-.2 2.7-.8 3.8-1.9 1.1-1 1.9-2.2 2.6-3.4.4-.7.7-1.3 1-2 .3-.6.5-1.3.8-2 .3-.7.5-1.4.7-2.2.2-.8.3-1.5.3-2.3 0-1.1-.4-2-1.1-2.7-.7-.7-1.7-1-2.9-.9-.7.1-1.4.3-2 .7-.6.4-1.2.8-1.7 1.4-.5.5-1 1.1-1.3 1.8-.4.6-.8 1.2-1.1 1.8-1.6 2.7-2.9 5.6-4 8.6v.3zM67 18.4c.6 0 1.2 0 1.8-.1.8-1.6 1.5-3.2 1.8-3.7.6-1.3 1.1-2.6 1.6-3.9.3-.6.5-1.3.7-1.9.2-.6.4-1.3.6-2l.3-1c.1-.3.1-.6.2-1 0-.3.2-1.2-.2-1.4-.4-.2-1.1.7-1.2.8-.5.6-.8 1.2-1.1 1.9-.3.7-.6 1.4-.8 2.1-.6 1.5-1.2 3-1.7 4.5-.6 1.5-1.1 3-1.6 4.5-.1.3-.3.7-.4 1.2zm-.4 1.3c-.5 1.4-1 3.1-1.2 3.8l-1.2 3.9c.7-1.3 1.4-2.5 2.1-3.8.3-.6 1.1-2.3 2-4-.6 0-1.2 0-1.7.1zM36.3 41.9c.4.9 1 1.7 1.9 2.2.9.5 1.9.8 3 .6 1.5-.2 2.7-.8 3.8-1.9 1.1-1 1.9-2.2 2.6-3.4.4-.7.7-1.3 1-2 .3-.6.5-1.3.8-2 .3-.7.5-1.4.7-2.2.2-.8.3-1.5.3-2.3 0-1.1-.4-2-1.1-2.7-.7-.7-1.7-1-2.9-.9-.7.1-1.4.3-2 .7-.6.4-1.2.8-1.7 1.4-.5.5-1 1.1-1.3 1.8-.4.6-.8 1.2-1.1 1.8-1.6 2.7-2.9 5.6-4 8.6v.3z"></path></svg> 